<svg xmlns="http://www.w3.org/2000/svg" width="66.483" height="81.933" viewBox="0 0 66.483 81.933">
    <g data-name="Group 835">
        <path data-name="Path 1023" d="M56.971 43.949H15.256a1.2 1.2 0 0 0 0 2.4h41.717a1.2 1.2 0 1 0 0-2.4z"/>
        <path data-name="Path 1024" d="M56.971 51.682H15.256a1.2 1.2 0 0 0 0 2.4h41.717a1.2 1.2 0 1 0 0-2.4z"/>
        <path data-name="Path 1025" d="M56.971 59.415H15.256a1.2 1.2 0 1 0 0 2.4h41.717a1.2 1.2 0 1 0 0-2.4z"/>
        <path data-name="Path 1026" d="M56.971 67.148H15.256a1.2 1.2 0 0 0 0 2.4h41.717a1.2 1.2 0 1 0 0-2.4z"/>
        <path data-name="Path 1027" d="M56.971 28.115H41.646a1.2 1.2 0 0 0 0 2.4h15.329a1.2 1.2 0 0 0 0-2.4z"/>
        <path data-name="Path 1028" d="M56.971 21.773H41.646a1.2 1.2 0 0 0 0 2.4h15.329a1.2 1.2 0 0 0 0-2.4z"/>
        <path data-name="Path 1029" d="M65.283 66.743a1.2 1.2 0 0 0 1.2-1.2V11.722A4.725 4.725 0 0 0 61.764 7h-2.283V4.719A4.725 4.725 0 0 0 54.762 0H4.719A4.725 4.725 0 0 0 0 4.719v65.492a4.725 4.725 0 0 0 4.719 4.719h2.282v2.282a4.725 4.725 0 0 0 4.719 4.719h50.042a4.725 4.725 0 0 0 4.719-4.719v-6.06a1.2 1.2 0 1 0-2.4 0v6.06a2.322 2.322 0 0 1-2.319 2.319h-50.04a2.322 2.322 0 0 1-2.319-2.319v-65.49A2.322 2.322 0 0 1 11.722 9.4h50.042a2.322 2.322 0 0 1 2.319 2.319v53.824a1.2 1.2 0 0 0 1.2 1.2zM7.002 11.722v60.809H4.719A2.322 2.322 0 0 1 2.4 70.212V4.719A2.322 2.322 0 0 1 4.719 2.4h50.043a2.322 2.322 0 0 1 2.319 2.319V7H11.722a4.725 4.725 0 0 0-4.72 4.72z"/>
        <path data-name="Path 1030" d="M136.7 100.576a1.2 1.2 0 0 0-1.2 1.2v9.063a3.665 3.665 0 0 0 3.275 3.653c.453.049 13.387 0 13.407 0h.013a3.665 3.665 0 0 0 3.277-3.653V95.187a3.678 3.678 0 0 0-3.674-3.674H139.17a3.678 3.678 0 0 0-3.674 3.674v.94a1.2 1.2 0 1 0 2.4 0v-.94a1.276 1.276 0 0 1 1.274-1.274h12.623a1.276 1.276 0 0 1 1.274 1.274v12.287a10.386 10.386 0 0 0-3.245-2.322 5.141 5.141 0 1 0-8.681 0 10.383 10.383 0 0 0-3.245 2.322v-5.7a1.2 1.2 0 0 0-1.196-1.198zm8.786-.919a2.741 2.741 0 1 1-2.741 2.741 2.744 2.744 0 0 1 2.737-2.741zm-2.359 7.306a5.118 5.118 0 0 0 4.717 0 8 8 0 0 1 5.038 4.546 1.267 1.267 0 0 1-.949.6c-.077 0-12.686.018-12.868 0h-.026a1.267 1.267 0 0 1-.948-.6 8 8 0 0 1 5.032-4.546z" transform="translate(-121.538 -76.869)" style="fill:#66bb6a"/>
    </g>
</svg>
