<svg xmlns="http://www.w3.org/2000/svg" width="81.172" height="82.96" viewBox="0 0 81.172 82.96">
    <path data-name="Path 943" d="M76.679 21.434h-4.942L73.186 6.8a2.635 2.635 0 0 0-2.36-2.879l-4.41-.436a1.19 1.19 0 0 0-.234 2.367l4.41.436a.255.255 0 0 1 .228.278l-2.488 25.13h-1.963l-.755-13.82a2.654 2.654 0 0 0-2.772-2.485l-6.72.367-.9-6.377a2.655 2.655 0 0 0-2.973-2.241L30.22 10.229l.764-7.718a.151.151 0 0 1 .167-.132l28.5 2.821a1.19 1.19 0 0 0 .234-2.367L31.385.012a2.53 2.53 0 0 0-2.767 2.264l-.821 8.293-14.79 2.076a2.532 2.532 0 0 0-2.156 2.855l.833 5.935H4.493A4.5 4.5 0 0 0 0 25.935v52.53a4.5 4.5 0 0 0 4.493 4.5h8.032a1.19 1.19 0 0 0 0-2.378H4.493a2.12 2.12 0 0 1-2.115-2.12V25.932a2.12 2.12 0 0 1 2.115-2.12h10.862l3.038 9.434a1.189 1.189 0 0 0 1.132.825h59.269v44.39a2.12 2.12 0 0 1-2.115 2.12H19.5a1.19 1.19 0 0 0 0 2.378h57.179a4.5 4.5 0 0 0 4.493-4.5V25.932a4.5 4.5 0 0 0-4.493-4.498zm-13.707-3.673a.254.254 0 0 1 .268.24l.748 13.69h-40.1l-.634-11.613a.151.151 0 0 1 .145-.156l9.021-.493zm-45.611 4.513a1.205 1.205 0 0 0-1.137-.84h-2.138l-.88-6.266a.151.151 0 0 1 .131-.168l15.372-2.158.056.008q.06.006.119.006a1.18 1.18 0 0 0 .49-.108l23.212-3.257a.254.254 0 0 1 .287.217l.867 6.176-30.472 1.664a2.55 2.55 0 0 0-2.39 2.66l.627 11.484h-1.114zm53.36 9.418.78-7.88h5.178a2.12 2.12 0 0 1 2.115 2.12v5.76h-8.073z"/>
    <path data-name="Path 945" d="M192.9 398.969h-29.072a1.19 1.19 0 0 0 0 2.378H192.9a1.19 1.19 0 0 0 0-2.378z" transform="translate(-137.779 -337.111)" style="fill:#66bb6a"/>
</svg>
