<svg id="magistrate" xmlns="http://www.w3.org/2000/svg" width="97.529" height="81.933" viewBox="0 0 97.529 81.933">
    <defs>
        <style>
            .cls-1{fill:#57a667}
        </style>
    </defs>
    <path id="Path_1033" data-name="Path 1033" d="M48.765 61.978a1.524 1.524 0 0 1-.648-.145L.876 39.607a1.524 1.524 0 0 1 0-2.758l47.242-22.234a1.524 1.524 0 0 1 1.3 0l47.236 22.234a1.524 1.524 0 0 1 0 2.758L49.413 61.833a1.524 1.524 0 0 1-.648.145zm-43.66-23.75L48.765 58.8l43.66-20.573-43.66-20.55z" transform="translate(-.001 -14.47)"/>
    <path id="Path_1034" data-name="Path 1034" d="M23.524 74.049A1.524 1.524 0 0 1 22 72.525v-16a1.524 1.524 0 1 1 3.048 0v16a1.524 1.524 0 0 1-1.524 1.524z" transform="translate(-5.238 -24.118)"/>
    <path id="Path_1035" data-name="Path 1035" d="M103.524 74.049A1.524 1.524 0 0 1 102 72.525v-16a1.524 1.524 0 1 1 3.048 0v16a1.524 1.524 0 0 1-1.524 1.524z" transform="translate(-24.281 -24.118)"/>
    <path id="Path_1036" data-name="Path 1036" d="M54 94.691c-17.235 0-32-9.441-32-17.167a1.524 1.524 0 1 1 3.048 0c0 4.831 12.191 14.119 28.954 14.119s28.954-9.288 28.954-14.119a1.524 1.524 0 0 1 3.048 0C86 85.25 71.238 94.691 54 94.691z" transform="translate(-5.238 -29.117)"/>
    <path id="Path_1037" data-name="Path 1037" class="cls-1" d="M86.369 87.187a1.524 1.524 0 0 1-1.524-1.524V56.892L62.833 45.881a1.524 1.524 0 1 1 1.356-2.728l22.859 11.43a1.524 1.524 0 0 1 .846 1.364v29.716a1.524 1.524 0 0 1-1.525 1.524z" transform="translate(-14.746 -21.255)"/>
    <path id="Path_1038" data-name="Path 1038" class="cls-1" d="M92.572 107.143a4.572 4.572 0 1 1 4.572-4.572 4.572 4.572 0 0 1-4.572 4.572zm0-6.1a1.524 1.524 0 1 0 1.524 1.524 1.524 1.524 0 0 0-1.524-1.519z" transform="translate(-20.949 -34.354)"/>
    <path id="Path_1039" data-name="Path 1039" class="cls-1" d="M95.094 118.168h-4.572A1.524 1.524 0 0 1 89 116.515l.762-9.143a1.525 1.525 0 0 1 3.048.114 1.525 1.525 0 0 1 3.048-.114l.762 9.143a1.524 1.524 0 0 1-1.524 1.653zm-2.918-3.048h1.264l-.632-7.49a.58.58 0 0 1 0-.114.579.579 0 0 1 0 .114z" transform="translate(-21.185 -36.236)"/>
</svg>
